humanWalk_AvgGRF.mot
version=1
nRows=101
nColumns=19
inDegrees=yes
endheader
time	ground_force_vx	ground_force_vy	ground_force_vz	ground_force_px	ground_force_py	ground_force_pz	1_ground_force_vx	1_ground_force_vy	1_ground_force_vz	1_ground_force_px	1_ground_force_py	1_ground_force_pz	ground_torque_x	ground_torque_y	ground_torque_z	1_ground_torque_x	1_ground_torque_y	1_ground_torque_z		
0	25.803	674.61	31.178	0	0	0	0	0	0	0	0	0	0	0	0	0	0	0
0.0116	32.945	688.81	32.582	0	0	0	0	0	0	0	0	0	0	0	0	0	0	0
0.0232	41.917	706.26	34.205	0	0	0	0	0	0	0	0	0	0	0	0	0	0	0
0.0348	52.081	725.35	35.833	0	0	0	0	0	0	0	0	0	0	0	0	0	0	0
0.0464	62.916	744.38	37.222	0	0	0	0	0	0	0	0	0	0	0	0	0	0	0
0.058	74.147	761.64	38.106	0	0	0	0	0	0	0	0	0	0	0	0	0	0	0
0.0696	85.694	775.18	38.265	0	0	0	0	0	0	0	0	0	0	0	0	0	0	0
0.0812	97.46	782.6	37.535	0	0	0	-0.24929	-0.50118	-0.15108	0	0	0	0	0	0	0	0	0
0.0928	109.13	781.08	35.745	0	0	0	7.8193	33.596	5.9181	0	0	0	0	0	0	0	0	0
0.1044	120	767.49	32.72	0	0	0	4.272	69.866	8.8328	0	0	0	0	0	0	0	0	0
0.116	128.89	738.74	28.389	0	0	0	-2.4308	129.53	14.295	0	0	0	0	0	0	0	0	0
0.1276	134.13	692.19	22.918	0	0	0	-14.635	214.41	20.477	0	0	0	0	0	0	0	0	0
0.1392	133.75	626.54	16.764	0	0	0	-32.414	307.1	22.361	0	0	0	0	0	0	0	0	0
0.1508	126.1	542.96	10.646	0	0	0	-51.693	396.63	18.207	0	0	0	0	0	0	0	0	0
0.1624	0	0	0	0	0	0	-69.132	474.03	8.8017	0	0	0	0	0	0	0	0	0
0.174	0	0	0	0	0	0	-82.429	536.96	-2.9411	0	0	0	0	0	0	0	0	0
0.1856	0	0	0	0	0	0	-91.337	587.78	-14.071	0	0	0	0	0	0	0	0	0
0.1972	0	0	0	0	0	0	-96.713	630.42	-22.675	0	0	0	0	0	0	0	0	0
0.2088	0	0	0	0	0	0	-99.541	667.79	-28.081	0	0	0	0	0	0	0	0	0
0.2204	0	0	0	0	0	0	-100.59	701.02	-30.65	0	0	0	0	0	0	0	0	0
0.232	0	0	0	0	0	0	-100.19	729.13	-31.206	0	0	0	0	0	0	0	0	0
0.2436	0	0	0	0	0	0	-98.28	749.9	-30.602	0	0	0	0	0	0	0	0	0
0.2552	0	0	0	0	0	0	-94.799	761.66	-29.547	0	0	0	0	0	0	0	0	0
0.2668	0	0	0	0	0	0	-89.918	764.13	-28.494	0	0	0	0	0	0	0	0	0
0.2784	0	0	0	0	0	0	-83.911	758.35	-27.696	0	0	0	0	0	0	0	0	0
0.29	0	0	0	0	0	0	-77.056	745.97	-27.189	0	0	0	0	0	0	0	0	0
0.3016	0	0	0	0	0	0	-69.634	728.8	-26.818	0	0	0	0	0	0	0	0	0
0.3132	0	0	0	0	0	0	-61.909	708.65	-26.363	0	0	0	0	0	0	0	0	0
0.3248	0	0	0	0	0	0	-54.117	687.35	-25.639	0	0	0	0	0	0	0	0	0
0.3364	0	0	0	0	0	0	-46.46	666.64	-24.497	0	0	0	0	0	0	0	0	0
0.348	0	0	0	0	0	0	-39.098	648.03	-22.901	0	0	0	0	0	0	0	0	0
0.3596	0	0	0	0	0	0	-32.102	632.48	-21.06	0	0	0	0	0	0	0	0	0
0.3712	0	0	0	0	0	0	-25.453	620.41	-19.366	0	0	0	0	0	0	0	0	0
0.3828	0	0	0	0	0	0	-19.093	611.96	-18.175	0	0	0	0	0	0	0	0	0
0.3944	0	0	0	0	0	0	-12.987	607.13	-17.644	0	0	0	0	0	0	0	0	0
0.406	0	0	0	0	0	0	-7.115	605.86	-17.719	0	0	0	0	0	0	0	0	0
0.4176	0	0	0	0	0	0	-1.4145	607.98	-18.228	0	0	0	0	0	0	0	0	0
0.4292	0	0	0	0	0	0	4.2571	613.24	-18.996	0	0	0	0	0	0	0	0	0
0.4408	0	0	0	0	0	0	10.1	621.37	-19.935	0	0	0	0	0	0	0	0	0
0.4524	0	0	0	0	0	0	16.329	632.09	-21.066	0	0	0	0	0	0	0	0	0
0.464	0	0	0	0	0	0	23.124	645.19	-22.453	0	0	0	0	0	0	0	0	0
0.4756	0	0	0	0	0	0	30.617	660.53	-24.128	0	0	0	0	0	0	0	0	0
0.4872	0	0	0	0	0	0	38.896	677.95	-26.043	0	0	0	0	0	0	0	0	0
0.4988	0	0	0	0	0	0	48.015	697.14	-28.053	0	0	0	0	0	0	0	0	0
0.5104	0	0	0	0	0	0	57.966	717.6	-29.932	0	0	0	0	0	0	0	0	0
0.522	0	0	0	0	0	0	68.691	738.54	-31.443	0	0	0	0	0	0	0	0	0
0.5336	0	0	0	0	0	0	80.091	758.7	-32.432	0	0	0	0	0	0	0	0	0
0.5452	0	0	0	0	0	0	92.061	776.15	-32.853	0	0	0	0	0	0	0	0	0
0.5568	0	0	0	0	0	0	104.48	788.29	-32.63	0	0	0	0	0	0	0	0	0
0.5684	0	0	0	0	0	0	117.06	791.86	-31.495	0	0	0	0	0	0	0	0	0
0.58	0	0	0	0	0	0	129.11	783.06	-29.033	0	0	0	0	0	0	0	0	0
0.5916	-4.8361	133.01	-13.82	0	0	0	139.36	757.83	-24.95	0	0	0	0	0	0	0	0	0
0.6032	-22.171	220.11	-19.155	0	0	0	145.91	712.66	-19.31	0	0	0	0	0	0	0	0	0
0.6148	-44.608	312.97	-20.401	0	0	0	146.49	645.66	-12.634	0	0	0	0	0	0	0	0	0
0.6264	-66.062	399.62	-15.46	0	0	0	139.08	557.96	-5.91	0	0	0	0	0	0	0	0	0
0.638	-82.974	471.56	-4.9743	0	0	0	122.84	454.82	-0.36528	0	0	0	0	0	0	0	0	0
0.6496	-94.765	528.16	8.4317	0	0	0	99.096	345.62	3.0116	0	0	0	0	0	0	0	0	0
0.6612	-102.47	574.83	21.391	0	0	0	71.691	241.93	3.9315	0	0	0	0	0	0	0	0	0
0.6728	-107.04	617.36	31.002	0	0	0	45.459	153.71	2.9567	0	0	0	0	0	0	0	0	0
0.6844	-108.9	658.13	35.913	0	0	0	23.968	86.495	1.193	0	0	0	0	0	0	0	0	0
0.696	-108.1	695.04	36.519	0	0	0	8.6598	38.318	-0.094345	0	0	0	0	0	0	0	0	0
0.7076	-104.86	723.79	34.529	0	0	0	2.0623	7.6083	-0.27004	0	0	0	0	0	0	0	0	0
0.7192	-99.812	741.44	31.869	0	0	0	0.17127	1.3761	-0.25462	0	0	0	0	0	0	0	0	0
0.7308	-93.648	747.68	29.75	0	0	0	0	0	0	0	0	0	0	0	0	0	0	0
0.7424	-86.883	744.03	28.497	0	0	0	0	0	0	0	0	0	0	0	0	0	0	0
0.754	-79.843	732.83	27.889	0	0	0	0	0	0	0	0	0	0	0	0	0	0	0
0.7656	-72.781	716.62	27.556	0	0	0	0	0	0	0	0	0	0	0	0	0	0	0
0.7772	-65.91	697.83	27.182	0	0	0	0	0	0	0	0	0	0	0	0	0	0	0
0.7888	-59.383	678.59	26.563	0	0	0	0	0	0	0	0	0	0	0	0	0	0	0
0.8004	-53.269	660.5	25.613	0	0	0	0	0	0	0	0	0	0	0	0	0	0	0
0.812	-47.567	644.58	24.373	0	0	0	0	0	0	0	0	0	0	0	0	0	0	0
0.8236	-42.212	631.29	23.026	0	0	0	0	0	0	0	0	0	0	0	0	0	0	0
0.8352	-37.118	620.8	21.811	0	0	0	0	0	0	0	0	0	0	0	0	0	0	0
0.8468	-32.176	613.25	20.906	0	0	0	0	0	0	0	0	0	0	0	0	0	0	0
0.8584	-27.259	608.78	20.372	0	0	0	0	0	0	0	0	0	0	0	0	0	0	0
0.87	-22.224	607.44	20.193	0	0	0	0	0	0	0	0	0	0	0	0	0	0	0
0.8816	-16.945	609.12	20.33	0	0	0	0	0	0	0	0	0	0	0	0	0	0	0
0.8932	-11.333	613.58	20.769	0	0	0	0	0	0	0	0	0	0	0	0	0	0	0
0.9048	-5.3144	620.48	21.522	0	0	0	0	0	0	0	0	0	0	0	0	0	0	0
0.9164	1.1734	629.51	22.581	0	0	0	0	0	0	0	0	0	0	0	0	0	0	0
0.928	8.1724	640.39	23.916	0	0	0	0	0	0	0	0	0	0	0	0	0	0	0
0.9396	15.718	652.87	25.497	0	0	0	0	0	0	0	0	0	0	0	0	0	0	0
0.9512	23.844	666.74	27.271	0	0	0	0	0	0	0	0	0	0	0	0	0	0	0
0.9628	32.559	681.73	29.109	0	0	0	0	0	0	0	0	0	0	0	0	0	0	0
0.9744	41.825	697.37	30.785	0	0	0	0	0	0	0	0	0	0	0	0	0	0	0
0.986	51.619	712.98	32.025	0	0	0	0	0	0	0	0	0	0	0	0	0	0	0
0.9976	62.061	727.81	32.653	0	0	0	0	0	0	0	0	0	0	0	0	0	0	0
1.0092	73.467	741.59	32.79	0	0	0	0	0	0	0	0	0	0	0	0	0	0	0
1.0208	86.166	755.2	32.931	0	0	0	0	0	0	0	0	0	0	0	0	0	0	0
1.0324	100.02	771.2	33.767	0	0	0	0	0	0	0	0	0	0	0	0	0	0	0
1.044	113.64	793.39	35.753	0	0	0	0	0	0	0	0	0	0	0	0	0	0	0
1.0556	123.47	823.85	38.486	0	0	0	0	0	0	0	0	0	0	0	0	0	0	0
1.0672	125.06	859.51	40.51	0	0	0	0	0	0	0	0	0	0	0	0	0	0	0
1.0788	116	892.3	39.854	0	0	0	0	0	0	0	0	0	0	0	0	0	0	0
1.0904	96.404	911.02	34.158	0	0	0	0	0	0	0	0	0	0	0	0	0	0	0
1.102	69.367	907	22.104	0	0	0	0	0	0	0	0	0	0	0	0	0	0	0
1.1136	38.379	878.79	5.2669	0	0	0	0	0	0	0	0	0	0	0	0	0	0	0
1.1252	6.8521	835.11	-12.408	0	0	0	0	0	0	0	0	0	0	0	0	0	0	0
1.1368	-20.702	792.42	-26.589	0	0	0	0	0	0	0	0	0	0	0	0	0	0	0
1.1484	-39.18	764.8	-34.677	0	0	0	0	0	0	0	0	0	0	0	0	0	0	0
1.16	-46.309	755.31	-37.218	0	0	0	0	0	0	0	0	0	0	0	0	0	0	0
